<?xml version="1.0" encoding="utf-8"?>
<!-- Generator: Adobe Illustrator 26.2.1, SVG Export Plug-In . SVG Version: 6.00 Build 0)  -->
<svg version="1.1" id="Layer_1" xmlns="http://www.w3.org/2000/svg" xmlns:xlink="http://www.w3.org/1999/xlink" x="0px" y="0px"
	 viewBox="0 0 577.9 169.6" style="enable-background:new 0 0 577.9 169.6;" xml:space="preserve">
<style type="text/css">
	.st0{fill:#9F076C;}
	.st1{fill:#D92B04;}
	.st2{fill:#047BC4;}
	.st3{fill:#0E6100;}
	.st4{fill:none;}
	.st5{fill:#0442BF;}
	.st6{font-family:'Verdana-Bold';}
	.st7{font-size:30px;}
</style>
<rect x="82" y="100" class="st0" width="4" height="8"/>
<rect x="82" y="52" class="st0" width="4" height="8"/>
<rect x="56" y="78" class="st1" width="8" height="4"/>
<rect x="104" y="78" class="st1" width="8" height="4"/>
<rect x="99" y="93" transform="matrix(0.7071 -0.7071 0.7071 0.7071 -38.9975 99.8261)" class="st2" width="4" height="8"/>
<rect x="65" y="59.1" transform="matrix(0.7071 -0.7071 0.7071 0.7071 -25.0174 65.8619)" class="st2" width="4" height="8"/>
<rect x="63.1" y="95" transform="matrix(0.7071 -0.7071 0.7071 0.7071 -48.9186 75.8625)" class="st3" width="8" height="4"/>
<rect x="97" y="61.1" transform="matrix(0.7071 -0.7071 0.7071 0.7071 -15.0381 89.9151)" class="st3" width="8" height="4"/>
<path class="st2" d="M109.5,148.1c-7.2,0-15.4-2.8-24-8.2c-13.3-8.5-26.2-22.7-36.1-39.9S33.7,64.7,33,48.8
	c-0.7-16.3,4-28.3,13.5-33.7s22.2-3.6,36,5.1c13.4,8.5,26.2,22.7,36.1,39.8s15.8,35.3,16.5,51.2c0.7,16.3-4.1,28.3-13.6,33.8
	C117.9,147.1,113.7,148.1,109.5,148.1z M58.6,16c-3.5-0.1-7,0.8-10,2.6C40.5,23.2,36.4,33.9,37,48.7c0.6,15.2,6.3,32.7,15.9,49.3
	s21.9,30.3,34.8,38.5c12.4,7.9,23.8,9.7,31.9,5s12.2-15.4,11.6-30.1c-0.7-15.2-6.3-32.7-15.9-49.3S93.2,31.8,80.4,23.6
	C72.5,18.6,65,16,58.6,16z"/>
<path class="st3" d="M58.6,148.1c-4.2,0.1-8.3-1-12-3.1c-9.5-5.5-14.3-17.5-13.5-33.8c0.7-15.8,6.5-34,16.5-51.2s22.7-31.3,36-39.8
	c13.8-8.8,26.5-10.6,36-5.1s14.3,17.5,13.6,33.8c-0.7,15.8-6.5,34-16.5,51.2S96,131.4,82.6,139.9C74,145.3,65.8,148.1,58.6,148.1
	L58.6,148.1z M109.5,16c-6.4,0-13.9,2.6-21.8,7.6c-12.8,8.2-25.2,21.9-34.8,38.5S37.6,96.2,37,111.4c-0.6,14.7,3.5,25.4,11.6,30.1
	s19.4,2.9,31.9-5c12.8-8.2,25.2-21.9,34.8-38.5s15.3-34.1,15.9-49.3c0.6-14.7-3.5-25.4-11.6-30.1C116.5,16.8,113,15.9,109.5,16
	L109.5,16z"/>
<path class="st1" d="M84,120c-19.8,0-38.5-4-52.5-11.3C17,101.1,9,91,9,80s8-21,22.5-28.6C45.6,44.1,64.2,40.1,84,40.1
	s38.5,4,52.5,11.3C151,59,159,69.1,159,80s-8,21.1-22.5,28.6C122.5,116,103.8,120,84,120z M84,44.1c-39.1,0-71,16.1-71,36
	s31.8,36,71,36s71-16.1,71-36S123.2,44.1,84,44.1z"/>
<circle class="st4" cx="84" cy="80" r="15"/>
<path class="st5" d="M84,97c-9.4,0-17-7.6-17-17s7.6-17,17-17s17,7.6,17,17S93.4,97,84,97L84,97z M84,67c-7.2,0-13,5.8-13,13
	s5.8,13,13,13s13-5.8,13-13S91.2,67,84,67z"/>
<g>
	<text transform="matrix(1 0 0 1 178.4018 76.0361)" class="st1 st6 st7">THE COMMUNITY </text>
	<text transform="matrix(1 0 0 1 170.4018 112.0361)" class="st1 st6 st7">SCIENCE MUSEUM</text>
</g>
</svg>
