<?xml version="1.0" encoding="utf-8"?>
<!-- Generator: Adobe Illustrator 26.2.1, SVG Export Plug-In . SVG Version: 6.00 Build 0)  -->
<svg version="1.1" id="Layer_1" xmlns="http://www.w3.org/2000/svg" xmlns:xlink="http://www.w3.org/1999/xlink" x="0px" y="0px"
	 viewBox="0 0 577.9 169.6" style="enable-background:new 0 0 577.9 169.6;" xml:space="preserve">
<style type="text/css">
	.st0{fill:#9F076C;}
	.st1{fill:#D92B04;}
	.st2{fill:#047BC4;}
	.st3{fill:#0E6100;}
	.st4{fill:none;}
	.st5{fill:#0442BF;}
	.st6{enable-background:new    ;}
</style>
<rect x="82" y="100" class="st0" width="4" height="8"/>
<rect x="82" y="52" class="st0" width="4" height="8"/>
<rect x="56" y="78" class="st1" width="8" height="4"/>
<rect x="104" y="78" class="st1" width="8" height="4"/>
<rect x="99" y="93" transform="matrix(0.7071 -0.7071 0.7071 0.7071 -39.01 99.8319)" class="st2" width="4" height="8"/>
<rect x="65" y="59.1" transform="matrix(0.7071 -0.7071 0.7071 0.7071 -24.9868 65.8456)" class="st2" width="4" height="8"/>
<rect x="63.1" y="95" transform="matrix(0.7071 -0.7071 0.7071 0.7071 -48.9452 75.8615)" class="st3" width="8" height="4"/>
<rect x="97" y="61.1" transform="matrix(0.7071 -0.7071 0.7071 0.7071 -15.0421 89.8908)" class="st3" width="8" height="4"/>
<path class="st2" d="M109.5,148.1c-7.2,0-15.4-2.8-24-8.2c-13.3-8.5-26.2-22.7-36.1-39.9S33.7,64.7,33,48.8
	c-0.7-16.3,4-28.3,13.5-33.7s22.2-3.6,36,5.1c13.4,8.5,26.2,22.7,36.1,39.8s15.8,35.3,16.5,51.2c0.7,16.3-4.1,28.3-13.6,33.8
	C117.9,147.1,113.7,148.1,109.5,148.1z M58.6,16c-3.5-0.1-7,0.8-10,2.6C40.5,23.2,36.4,33.9,37,48.7c0.6,15.2,6.3,32.7,15.9,49.3
	s21.9,30.3,34.8,38.5c12.4,7.9,23.8,9.7,31.9,5s12.2-15.4,11.6-30.1c-0.7-15.2-6.3-32.7-15.9-49.3S93.2,31.8,80.4,23.6
	C72.5,18.6,65,16,58.6,16z"/>
<path class="st3" d="M58.6,148.1c-4.2,0.1-8.3-1-12-3.1c-9.5-5.5-14.3-17.5-13.5-33.8c0.7-15.8,6.5-34,16.5-51.2s22.7-31.3,36-39.8
	c13.8-8.8,26.5-10.6,36-5.1s14.3,17.5,13.6,33.8c-0.7,15.8-6.5,34-16.5,51.2S96,131.4,82.6,139.9C74,145.3,65.8,148.1,58.6,148.1
	L58.6,148.1z M109.5,16c-6.4,0-13.9,2.6-21.8,7.6c-12.8,8.2-25.2,21.9-34.8,38.5S37.6,96.2,37,111.4c-0.6,14.7,3.5,25.4,11.6,30.1
	s19.4,2.9,31.9-5c12.8-8.2,25.2-21.9,34.8-38.5s15.3-34.1,15.9-49.3c0.6-14.7-3.5-25.4-11.6-30.1C116.5,16.8,113,15.9,109.5,16
	L109.5,16z"/>
<path class="st1" d="M84,120c-19.8,0-38.5-4-52.5-11.3C17,101.1,9,91,9,80s8-21,22.5-28.6C45.6,44.1,64.2,40.1,84,40.1
	s38.5,4,52.5,11.3C151,59,159,69.1,159,80s-8,21.1-22.5,28.6C122.5,116,103.8,120,84,120z M84,44.1c-39.1,0-71,16.1-71,36
	s31.8,36,71,36s71-16.1,71-36S123.2,44.1,84,44.1z"/>
<circle class="st4" cx="84" cy="80" r="15"/>
<path class="st5" d="M84,97c-9.4,0-17-7.6-17-17s7.6-17,17-17s17,7.6,17,17S93.4,97,84,97L84,97z M84,67c-7.2,0-13,5.8-13,13
	s5.8,13,13,13s13-5.8,13-13S91.2,67,84,67z"/>
<g>
	<g class="st6">
		<path class="st1" d="M197.2,78V60.2h-6.4v-3.6h17.1v3.6h-6.4V78H197.2z"/>
		<path class="st1" d="M210.7,78V56.5h4.3V65h8.5v-8.5h4.3V78h-4.3v-9.4H215V78H210.7z"/>
		<path class="st1" d="M232.3,78V56.5h15.9v3.6h-11.6v4.8h10.8v3.6h-10.8v5.8h12V78H232.3z"/>
		<path class="st1" d="M274.4,70.1l4.2,1.3c-0.6,2.3-1.7,4.1-3.2,5.2s-3.4,1.7-5.7,1.7c-2.9,0-5.2-1-7-2.9c-1.8-1.9-2.8-4.6-2.8-8
			c0-3.6,0.9-6.3,2.8-8.3c1.8-2,4.3-3,7.3-3c2.6,0,4.8,0.8,6.4,2.3c1,0.9,1.7,2.2,2.2,4l-4.3,1c-0.3-1.1-0.8-2-1.6-2.6s-1.8-1-2.9-1
			c-1.6,0-2.9,0.6-3.9,1.7s-1.5,3-1.5,5.6c0,2.7,0.5,4.6,1.5,5.8s2.2,1.7,3.8,1.7c1.2,0,2.1-0.4,3-1.1S274.1,71.7,274.4,70.1z"/>
		<path class="st1" d="M281.5,67.4c0-2.2,0.3-4,1-5.5c0.5-1.1,1.2-2.1,2-2.9s1.8-1.5,2.8-1.9c1.3-0.6,2.9-0.8,4.6-0.8
			c3.2,0,5.7,1,7.6,2.9s2.8,4.7,2.8,8.2c0,3.5-0.9,6.2-2.8,8.1s-4.4,2.9-7.6,2.9c-3.2,0-5.7-1-7.6-2.9
			C282.4,73.5,281.5,70.8,281.5,67.4z M285.9,67.2c0,2.4,0.6,4.3,1.7,5.5c1.1,1.3,2.5,1.9,4.3,1.9s3.1-0.6,4.3-1.9
			c1.1-1.2,1.7-3.1,1.7-5.6c0-2.5-0.5-4.3-1.6-5.5s-2.5-1.8-4.3-1.8s-3.2,0.6-4.3,1.8C286.5,62.9,285.9,64.8,285.9,67.2z"/>
		<path class="st1" d="M305.6,78V56.5h6.5l3.9,14.6l3.9-14.6h6.5V78h-4V61.1L318.1,78h-4.2l-4.2-16.9V78H305.6z"/>
		<path class="st1" d="M330.6,78V56.5h6.5l3.9,14.6l3.9-14.6h6.5V78h-4V61.1L343.1,78h-4.2l-4.2-16.9V78H330.6z"/>
		<path class="st1" d="M355.6,56.5h4.3v11.6c0,1.8,0.1,3,0.2,3.6c0.2,0.9,0.6,1.6,1.3,2.1c0.7,0.5,1.7,0.8,2.9,0.8
			c1.2,0,2.2-0.3,2.8-0.8s1-1.1,1.1-1.9s0.2-1.9,0.2-3.6V56.5h4.3v11.3c0,2.6-0.1,4.4-0.4,5.5s-0.7,2-1.3,2.7s-1.5,1.3-2.5,1.8
			c-1.1,0.4-2.4,0.7-4.1,0.7c-2.1,0-3.6-0.2-4.7-0.7c-1.1-0.5-1.9-1.1-2.5-1.8s-1-1.6-1.2-2.4c-0.3-1.2-0.4-3-0.4-5.4V56.5z"/>
		<path class="st1" d="M377.4,78V56.5h4.2l8.8,14.3V56.5h4V78h-4.4l-8.7-14v14H377.4z"/>
		<path class="st1" d="M398.9,78V56.5h4.3V78H398.9z"/>
		<path class="st1" d="M412.2,78V60.2h-6.4v-3.6h17.1v3.6h-6.4V78H412.2z"/>
		<path class="st1" d="M431.3,78v-9l-7.9-12.4h5.1l5.1,8.5l5-8.5h5L435.6,69v9H431.3z"/>
	</g>
	<g class="st6">
		<path class="st1" d="M176.2,107l4.2-0.4c0.3,1.4,0.8,2.5,1.5,3.1s1.8,1,3.1,1c1.4,0,2.4-0.3,3.2-0.9c0.7-0.6,1.1-1.3,1.1-2.1
			c0-0.5-0.1-0.9-0.4-1.3c-0.3-0.4-0.8-0.7-1.6-0.9c-0.5-0.2-1.7-0.5-3.5-0.9c-2.3-0.6-4-1.3-4.9-2.1c-1.3-1.2-2-2.6-2-4.3
			c0-1.1,0.3-2.1,0.9-3.1c0.6-1,1.5-1.7,2.7-2.2s2.6-0.7,4.2-0.7c2.7,0,4.7,0.6,6.1,1.8s2.1,2.8,2.1,4.7l-4.3,0.2
			c-0.2-1.1-0.6-1.9-1.2-2.4c-0.6-0.5-1.5-0.7-2.7-0.7c-1.3,0-2.2,0.3-3,0.8c-0.5,0.3-0.7,0.8-0.7,1.3c0,0.5,0.2,0.9,0.6,1.3
			c0.5,0.5,1.9,0.9,4,1.4s3.7,1,4.7,1.5s1.8,1.3,2.4,2.2c0.6,0.9,0.9,2.1,0.9,3.4c0,1.2-0.3,2.4-1,3.5s-1.7,1.9-2.9,2.4
			c-1.2,0.5-2.8,0.8-4.7,0.8c-2.7,0-4.8-0.6-6.3-1.9C177.4,111.2,176.5,109.4,176.2,107z"/>
		<path class="st1" d="M211.1,106.1l4.2,1.3c-0.6,2.3-1.7,4.1-3.2,5.2s-3.4,1.7-5.7,1.7c-2.9,0-5.2-1-7-2.9c-1.8-1.9-2.8-4.6-2.8-8
			c0-3.6,0.9-6.3,2.8-8.3c1.8-2,4.3-3,7.3-3c2.6,0,4.8,0.8,6.4,2.3c1,0.9,1.7,2.2,2.2,4l-4.3,1c-0.3-1.1-0.8-2-1.6-2.6s-1.8-1-2.9-1
			c-1.6,0-2.9,0.6-3.9,1.7s-1.5,3-1.5,5.6c0,2.7,0.5,4.6,1.5,5.8s2.2,1.7,3.8,1.7c1.2,0,2.1-0.4,3-1.1S210.7,107.7,211.1,106.1z"/>
		<path class="st1" d="M218.9,114V92.5h4.3V114H218.9z"/>
		<path class="st1" d="M227.4,114V92.5h15.9v3.6h-11.6v4.8h10.8v3.6h-10.8v5.8h12v3.6H227.4z"/>
		<path class="st1" d="M247.4,114V92.5h4.2l8.8,14.3V92.5h4V114h-4.4l-8.7-14v14H247.4z"/>
		<path class="st1" d="M282.8,106.1l4.2,1.3c-0.6,2.3-1.7,4.1-3.2,5.2s-3.4,1.7-5.7,1.7c-2.9,0-5.2-1-7-2.9c-1.8-1.9-2.8-4.6-2.8-8
			c0-3.6,0.9-6.3,2.8-8.3c1.8-2,4.3-3,7.3-3c2.6,0,4.8,0.8,6.4,2.3c1,0.9,1.7,2.2,2.2,4l-4.3,1c-0.3-1.1-0.8-2-1.6-2.6s-1.8-1-2.9-1
			c-1.6,0-2.9,0.6-3.9,1.7s-1.5,3-1.5,5.6c0,2.7,0.5,4.6,1.5,5.8s2.2,1.7,3.8,1.7c1.2,0,2.1-0.4,3-1.1S282.4,107.7,282.8,106.1z"/>
		<path class="st1" d="M290.7,114V92.5h15.9v3.6H295v4.8h10.8v3.6H295v5.8h12v3.6H290.7z"/>
		<path class="st1" d="M319,114V92.5h6.5l3.9,14.6l3.9-14.6h6.5V114h-4V97.1l-4.3,16.9h-4.2L323,97.1V114H319z"/>
		<path class="st1" d="M344,92.5h4.3v11.6c0,1.8,0.1,3,0.2,3.6c0.2,0.9,0.6,1.6,1.3,2.1c0.7,0.5,1.7,0.8,2.9,0.8
			c1.2,0,2.2-0.3,2.8-0.8s1-1.1,1.1-1.9s0.2-1.9,0.2-3.6V92.5h4.3v11.3c0,2.6-0.1,4.4-0.4,5.5s-0.7,2-1.3,2.7s-1.5,1.3-2.5,1.8
			c-1.1,0.4-2.4,0.7-4.1,0.7c-2.1,0-3.6-0.2-4.7-0.7c-1.1-0.5-1.9-1.1-2.5-1.8s-1-1.6-1.2-2.4c-0.3-1.2-0.4-3-0.4-5.4V92.5z"/>
		<path class="st1" d="M364.6,107l4.2-0.4c0.3,1.4,0.8,2.5,1.5,3.1s1.8,1,3.1,1c1.4,0,2.4-0.3,3.2-0.9c0.7-0.6,1.1-1.3,1.1-2.1
			c0-0.5-0.1-0.9-0.4-1.3c-0.3-0.4-0.8-0.7-1.6-0.9c-0.5-0.2-1.7-0.5-3.5-0.9c-2.3-0.6-4-1.3-4.9-2.1c-1.3-1.2-2-2.6-2-4.3
			c0-1.1,0.3-2.1,0.9-3.1c0.6-1,1.5-1.7,2.7-2.2s2.6-0.7,4.2-0.7c2.7,0,4.7,0.6,6.1,1.8s2.1,2.8,2.1,4.7l-4.3,0.2
			c-0.2-1.1-0.6-1.9-1.2-2.4c-0.6-0.5-1.5-0.7-2.7-0.7c-1.3,0-2.2,0.3-3,0.8c-0.5,0.3-0.7,0.8-0.7,1.3c0,0.5,0.2,0.9,0.6,1.3
			c0.5,0.5,1.9,0.9,4,1.4s3.7,1,4.7,1.5s1.8,1.3,2.4,2.2c0.6,0.9,0.9,2.1,0.9,3.4c0,1.2-0.3,2.4-1,3.5s-1.7,1.9-2.9,2.4
			c-1.2,0.5-2.8,0.8-4.7,0.8c-2.7,0-4.8-0.6-6.3-1.9C365.7,111.2,364.9,109.4,364.6,107z"/>
		<path class="st1" d="M385.7,114V92.5h15.9v3.6H390v4.8h10.8v3.6H390v5.8h12v3.6H385.7z"/>
		<path class="st1" d="M405.7,92.5h4.3v11.6c0,1.8,0.1,3,0.2,3.6c0.2,0.9,0.6,1.6,1.3,2.1c0.7,0.5,1.7,0.8,2.9,0.8
			c1.2,0,2.2-0.3,2.8-0.8s1-1.1,1.1-1.9s0.2-1.9,0.2-3.6V92.5h4.3v11.3c0,2.6-0.1,4.4-0.4,5.5s-0.7,2-1.3,2.7s-1.5,1.3-2.5,1.8
			c-1.1,0.4-2.4,0.7-4.1,0.7c-2.1,0-3.6-0.2-4.7-0.7c-1.1-0.5-1.9-1.1-2.5-1.8s-1-1.6-1.2-2.4c-0.3-1.2-0.4-3-0.4-5.4V92.5z"/>
		<path class="st1" d="M427.3,114V92.5h6.5l3.9,14.6l3.9-14.6h6.5V114h-4V97.1l-4.3,16.9h-4.2l-4.2-16.9V114H427.3z"/>
	</g>
</g>
</svg>
